<?xml version="1.0" encoding="UTF-8"?>
<svg xmlns="http://www.w3.org/2000/svg" xmlns:xlink="http://www.w3.org/1999/xlink" width="30px" height="30px" viewBox="0 0 30 30" version="1.1">
<g id="surface1">
<path style=" stroke:none;fill-rule:nonzero;fill:rgb(0%,0%,0%);fill-opacity:1;" d="M 29.046875 17.039062 C 29.847656 16.542969 30 15.785156 30 15.28125 C 30 13.96875 28.929688 12.5 27.5 12.5 L 20.503906 12.5 C 20.253906 12.496094 19 12.410156 19 11 C 19 10.722656 18.777344 10.5 18.5 10.5 C 18.222656 10.5 18 10.722656 18 11 C 18 12.976562 19.636719 13.5 20.5 13.5 L 27.5 13.5 C 28.332031 13.5 29 14.472656 29 15.28125 C 29 15.542969 29 16.332031 27.445312 16.503906 C 27.179688 16.53125 26.988281 16.761719 27 17.027344 C 27.015625 17.292969 27.234375 17.5 27.5 17.5 C 28.328125 17.5 29 18.171875 29 19 C 29 19.828125 28.328125 20.5 27.5 20.5 L 26.5 20.5 C 26.222656 20.5 26 20.722656 26 21 C 26 21.277344 26.222656 21.5 26.5 21.5 C 27.328125 21.5 28 22.171875 28 23 C 28 23.828125 27.328125 24.5 26.5 24.5 L 25 24.5 C 24.722656 24.5 24.5 24.722656 24.5 25 C 24.5 25.277344 24.722656 25.5 25 25.5 C 25.523438 25.5 26 25.976562 26 26.5 C 26 27.003906 25.503906 27.5 25 27.5 L 17.5 27.5 C 15.414062 27.5 14.660156 27.085938 13.792969 26.605469 C 13.054688 26.199219 12.222656 25.742188 10.570312 25.503906 C 10.296875 25.464844 10.042969 25.65625 10.003906 25.929688 C 9.964844 26.203125 10.15625 26.457031 10.429688 26.496094 C 11.898438 26.703125 12.617188 27.101562 13.308594 27.480469 C 14.21875 27.984375 15.15625 28.5 17.5 28.5 L 25 28.5 C 26.046875 28.5 27 27.546875 27 26.5 C 27 26.136719 26.894531 25.789062 26.71875 25.492188 C 27.992188 25.378906 29 24.304688 29 23 C 29 22.367188 28.761719 21.785156 28.371094 21.34375 C 29.320312 20.988281 30 20.074219 30 19 C 30 18.203125 29.628906 17.496094 29.046875 17.039062 Z M 29.046875 17.039062 "/>
<path style=" stroke:none;fill-rule:nonzero;fill:rgb(0%,0%,0%);fill-opacity:1;" d="M 4.5 26 C 5.050781 26 5.5 25.550781 5.5 25 C 5.5 24.449219 5.050781 24 4.5 24 C 3.949219 24 3.5 24.449219 3.5 25 C 3.5 25.550781 3.949219 26 4.5 26 Z M 4.5 26 "/>
<path style=" stroke:none;fill-rule:nonzero;fill:rgb(0%,0%,0%);fill-opacity:1;" d="M 10.5 14.5 C 11.984375 14.5 13.863281 12.84375 14.851562 11.851562 C 17 9.707031 17 7.039062 17 3 C 17 2.6875 17.1875 2.5 17.5 2.5 C 19.230469 2.5 20 3.269531 20 5 L 20 11 C 20 11.277344 20.222656 11.5 20.5 11.5 C 20.777344 11.5 21 11.277344 21 11 L 21 5 C 21 2.710938 19.789062 1.5 17.5 1.5 C 16.632812 1.5 16 2.132812 16 3 C 16 6.925781 16 9.292969 14.148438 11.148438 C 12.695312 12.597656 11.296875 13.5 10.5 13.5 C 10.222656 13.5 10 13.722656 10 14 C 10 14.277344 10.222656 14.5 10.5 14.5 Z M 10.5 14.5 "/>
<path style=" stroke:none;fill-rule:nonzero;fill:rgb(0%,0%,0%);fill-opacity:1;" d="M 8.5 12.5 L 0.5 12.5 C 0.222656 12.5 0 12.722656 0 13 L 0 28 C 0 28.277344 0.222656 28.5 0.5 28.5 L 8.5 28.5 C 8.777344 28.5 9 28.277344 9 28 L 9 13 C 9 12.722656 8.777344 12.5 8.5 12.5 Z M 8 27.5 L 1 27.5 L 1 13.5 L 8 13.5 Z M 8 27.5 "/>
</g>
</svg>
